<svg xmlns="http://www.w3.org/2000/svg" width="57" height="49.388" viewBox="0 0 57 49.388">
    <defs>
        <style>
            .cls-1{fill:#ff9dda}
        </style>
    </defs>
    <g id="computer_icon" transform="translate(1027.5 258.5)">
        <g id="그룹_26" data-name="그룹 26" transform="translate(-1007.517 -221.29)">
            <path id="패스_8" d="M-927.132-92H-933.623s.852 6.717-6.381 11.4c-.4.258-.181.774.331.774h18.591c.511 0 .729-.516.331-.774-7.233-4.679-6.381-11.4-6.381-11.4z" class="cls-1" data-name="패스 8" transform="translate(940.21 92)"/>
        </g>
        <g id="그룹_27" data-name="그룹 27" transform="translate(-1024.869 -256.086)">
            <path id="패스_9" d="M-967.706-252h-50.22a2.075 2.075 0 0 0-2.074 2.074v30.647a2.075 2.075 0 0 0 2.074 2.074h50.22a2.075 2.075 0 0 0 2.074-2.074v-30.647a2.075 2.075 0 0 0-2.074-2.074zm.117 27.619a2.074 2.074 0 0 1-2.075 2.074h-46.305a2.074 2.074 0 0 1-2.074-2.074v-23.807a2.074 2.074 0 0 1 2.074-2.074h46.305a2.074 2.074 0 0 1 2.075 2.074z" class="cls-1" data-name="패스 9" transform="translate(1020 252)"/>
        </g>
        <g id="그룹_28" data-name="그룹 28" transform="translate(-1010.148 -223.704)">
            <path id="패스_10" d="M-928.256-85.669h-18.591a.839.839 0 0 1-.834-.566.715.715 0 0 1 .326-.809c6.979-4.52 6.243-11.02 6.234-11.085l-.023-.18.23-.188H-934.192l.23.188-.017.184c-.008.065-.729 6.576 6.235 11.085a.715.715 0 0 1 .326.809.839.839 0 0 1-.838.562zm-12.194-12.179c.051 1.488-.195 7.236-6.551 11.352-.03.019-.063.048-.055.076s.077.1.209.1h18.591c.132 0 .2-.059.209-.1s-.025-.057-.055-.076c-6.356-4.116-6.6-9.864-6.551-11.352z" data-name="패스 10" transform="translate(947.71 98.5)"/>
        </g>
        <g id="그룹_29" data-name="그룹 29" transform="translate(-1001.294 -227.292)">
            <circle id="타원_13" cx="1.305" cy="1.305" r="1.305" data-name="타원 13"/>
        </g>
        <g id="그룹_30" data-name="그룹 30" transform="translate(-1027.5 -258.5)">
            <path id="패스_11" d="M-974.879-223.051h-50.22a2.4 2.4 0 0 1-2.4-2.4V-256.1a2.4 2.4 0 0 1 2.4-2.4h50.22a2.4 2.4 0 0 1 2.4 2.4v30.647a2.4 2.4 0 0 1-2.4 2.402zm-50.22-34.8a1.75 1.75 0 0 0-1.748 1.748v30.647a1.75 1.75 0 0 0 1.748 1.748h50.22a1.75 1.75 0 0 0 1.748-1.748V-256.1a1.75 1.75 0 0 0-1.748-1.748zm48.263 29.693h-46.305a2.4 2.4 0 0 1-2.4-2.4v-23.807a2.4 2.4 0 0 1 2.4-2.4h46.305a2.4 2.4 0 0 1 2.4 2.4v23.807a2.4 2.4 0 0 1-2.401 2.403zm-46.305-27.956a1.75 1.75 0 0 0-1.748 1.748v23.807a1.75 1.75 0 0 0 1.748 1.748h46.305a1.75 1.75 0 0 0 1.748-1.748v-23.807a1.75 1.75 0 0 0-1.748-1.748z" data-name="패스 11" transform="translate(1027.5 258.5)"/>
        </g>
    </g>
</svg>
