<svg xmlns="http://www.w3.org/2000/svg" width="31" height="53" viewBox="0 0 31 53">
    <defs>
        <style>
            .cls-1{fill:#ff9dda}
        </style>
    </defs>
    <g id="phone_icon" transform="translate(1465.5 554.458)">
        <g id="그룹_14" data-name="그룹 14" transform="translate(-1462.829 -551.984)">
            <path id="패스_4" d="M-1457-545.737v48.084a1.228 1.228 0 0 0 1.234 1.221h25.861a1.228 1.228 0 0 0 1.234-1.221v-48.084a1.228 1.228 0 0 0-1.234-1.221h-25.861a1.228 1.228 0 0 0-1.234 1.221zm24.821 46.049h-21.312a1.228 1.228 0 0 1-1.234-1.221v-41.573a1.228 1.228 0 0 1 1.234-1.221h21.312a1.227 1.227 0 0 1 1.234 1.221v41.573a1.227 1.227 0 0 1-1.234 1.221z" class="cls-1" data-name="패스 4" transform="translate(1457 546.958)"/>
        </g>
        <g id="그룹_15" data-name="그룹 15" transform="translate(-1465.5 -554.458)">
            <path id="패스_5" d="M-1438.124-503.342h-25.834a1.536 1.536 0 0 1-1.542-1.527v-48.062a1.536 1.536 0 0 1 1.542-1.527h25.834a1.537 1.537 0 0 1 1.543 1.527v48.062a1.537 1.537 0 0 1-1.543 1.527zm-25.834-50.5a.919.919 0 0 0-.923.914v48.062a.919.919 0 0 0 .923.914h25.834a.919.919 0 0 0 .923-.914v-48.062a.919.919 0 0 0-.923-.914zm23.558 47.242h-21.289a1.537 1.537 0 0 1-1.543-1.527v-41.553a1.537 1.537 0 0 1 1.543-1.527h21.289a1.537 1.537 0 0 1 1.543 1.527v41.553a1.537 1.537 0 0 1-1.543 1.527zm-21.289-43.994a.919.919 0 0 0-.923.914v41.553a.919.919 0 0 0 .923.914h21.289a.919.919 0 0 0 .923-.914v-41.553a.919.919 0 0 0-.923-.914z" data-name="패스 5" transform="translate(1465.5 554.458)"/>
        </g>
        <g id="그룹_16" data-name="그룹 16" transform="translate(-1452.08 -552.894)">
            <circle id="타원_9" cx=".393" cy=".393" r=".393" data-name="타원 9"/>
        </g>
        <g id="그룹_17" data-name="그룹 17" transform="translate(-1452.268 -505.906)">
            <circle id="타원_10" cx=".786" cy=".786" r=".786" data-name="타원 10"/>
        </g>
    </g>
</svg>
