<svg xmlns="http://www.w3.org/2000/svg" width="41" height="53" viewBox="0 0 41 53">
    <defs>
        <style>
            .cls-1{fill:#ff9dda}
        </style>
    </defs>
    <g id="table_icon" transform="translate(1240.5 554.458)">
        <g id="그룹_19" data-name="그룹 19" transform="translate(-1237.23 -551.926)">
            <path id="패스_6" d="M-1230.371-545.739v48.029c0 .673.736 1.219 1.644 1.219h34.443c.907 0 1.644-.546 1.644-1.219v-48.029c0-.673-.736-1.219-1.644-1.219h-34.443c-.908 0-1.644.546-1.644 1.219zm33.057 46h-28.386c-.908 0-1.644-.546-1.644-1.219v-41.525c0-.673.736-1.219 1.644-1.219h28.384c.908 0 1.643.546 1.643 1.219v41.525c.003.67-.733 1.216-1.641 1.216z" class="cls-1" data-name="패스 6" transform="translate(1230.371 546.958)"/>
        </g>
        <g id="그룹_20" data-name="그룹 20" transform="translate(-1240.5 -554.458)">
            <path id="패스_7" d="M-1204.071-503.377h-34.443a1.8 1.8 0 0 1-1.985-1.526v-48.029a1.8 1.8 0 0 1 1.985-1.526h34.443a1.8 1.8 0 0 1 1.985 1.526v48.032a1.8 1.8 0 0 1-1.985 1.523zm-34.443-50.468c-.718 0-1.3.409-1.3.913v48.032c0 .5.584.913 1.3.913h34.443c.718 0 1.3-.409 1.3-.913v-48.029c0-.5-.584-.913-1.3-.913zm31.414 47.216h-28.384a1.8 1.8 0 0 1-1.985-1.526v-41.525a1.8 1.8 0 0 1 1.985-1.526h28.384a1.8 1.8 0 0 1 1.985 1.526v41.525a1.8 1.8 0 0 1-1.985 1.526zm-28.384-43.964c-.718 0-1.3.409-1.3.913v41.525c0 .5.584.913 1.3.913h28.384c.718 0 1.3-.409 1.3-.913v-41.525c0-.5-.584-.913-1.3-.913z" data-name="패스 7" transform="translate(1240.5 554.458)"/>
        </g>
        <g id="그룹_21" data-name="그룹 21" transform="translate(-1221.749 -552.832)">
            <ellipse id="타원_11" cx=".456" cy=".409" data-name="타원 11" rx=".456" ry=".409"/>
        </g>
        <g id="그룹_22" data-name="그룹 22" transform="translate(-1222.205 -506.042)">
            <ellipse id="타원_12" cx=".912" cy=".817" data-name="타원 12" rx=".912" ry=".817"/>
        </g>
    </g>
</svg>
